HIERARCHY
ROOT SimulationBone
{
	OFFSET 0.000000 0.000000 0.000000
	CHANNELS 6 Xposition Yposition Zposition Zrotation Yrotation Xrotation 
	JOINT Hips
	{
		OFFSET 0.000000 0.000000 0.000000
		CHANNELS 6 Xposition Yposition Zposition Zrotation Yrotation Xrotation 
		JOINT RightUpLeg
		{
			OFFSET 0.103457 1.857818 10.548502
			CHANNELS 3 Zrotation Yrotation Xrotation
			JOINT RightLeg
			{
				OFFSET 43.500000 -0.000011 -0.000004
				CHANNELS 3 Zrotation Yrotation Xrotation
				JOINT RightFoot
				{
					OFFSET 42.372192 -0.000004 -0.000008
					CHANNELS 3 Zrotation Yrotation Xrotation
					JOINT RightToe
					{
						OFFSET 17.300014 0.000006 0.000001
						CHANNELS 3 Zrotation Yrotation Xrotation
						End Site
						{
							OFFSET 0.000000 0.000000 0.000000
						}
					}
				}
			}
		}
		JOINT LeftUpLeg
		{
			OFFSET 0.103457 1.857817 -10.548505
			CHANNELS 3 Zrotation Yrotation Xrotation
			JOINT LeftLeg
			{
				OFFSET 43.500046 -0.000004 0.000011
				CHANNELS 3 Zrotation Yrotation Xrotation
				JOINT LeftFoot
				{
					OFFSET 42.372257 0.000000 0.000015
					CHANNELS 3 Zrotation Yrotation Xrotation
					JOINT LeftToe
					{
						OFFSET 17.300003 -0.000000 0.000002
						CHANNELS 3 Zrotation Yrotation Xrotation
						End Site
						{
							OFFSET 0.000000 0.000000 0.000000
						}
					}
				}
			}
		}
		JOINT Spine
		{
			OFFSET 6.901961 -2.603721 -0.000001
			CHANNELS 3 Zrotation Yrotation Xrotation
			JOINT Spine1
			{
				OFFSET 12.588108 0.000002 -0.000001
				CHANNELS 3 Zrotation Yrotation Xrotation
				JOINT Spine2
				{
					OFFSET 12.343199 -0.000020 0.000006
					CHANNELS 3 Zrotation Yrotation Xrotation
					JOINT Neck
					{
						OFFSET 25.832905 0.000017 0.000000
						CHANNELS 3 Zrotation Yrotation Xrotation
						JOINT Head
						{
							OFFSET 11.766604 -0.000006 0.000004
							CHANNELS 3 Zrotation Yrotation Xrotation
							End Site
							{
								OFFSET 0.000000 0.000000 0.000000
							}
						}
					}
					JOINT RightShoulder
					{
						OFFSET 19.745903 -1.480350 6.000100
						CHANNELS 3 Zrotation Yrotation Xrotation
						JOINT RightArm
						{
							OFFSET 11.284130 -0.000016 -0.000016
							CHANNELS 3 Zrotation Yrotation Xrotation
							JOINT RightForeArm
							{
								OFFSET 33.000046 0.000004 0.000031
								CHANNELS 3 Zrotation Yrotation Xrotation
								JOINT RightHand
								{
									OFFSET 25.199999 0.000027 0.000001
									CHANNELS 3 Zrotation Yrotation Xrotation
									End Site
									{
										OFFSET 0.000000 0.000000 0.000000
									}
								}
							}
						}
					}
					JOINT LeftShoulder
					{
						OFFSET 19.746094 -1.480375 -6.000080
						CHANNELS 3 Zrotation Yrotation Xrotation
						JOINT LeftArm
						{
							OFFSET 11.284131 -0.000016 -0.000017
							CHANNELS 3 Zrotation Yrotation Xrotation
							JOINT LeftForeArm
							{
								OFFSET 33.000095 0.000009 0.000020
								CHANNELS 3 Zrotation Yrotation Xrotation
								JOINT LeftHand
								{
									OFFSET 25.199789 0.000132 0.000423
									CHANNELS 3 Zrotation Yrotation Xrotation
									End Site
									{
										OFFSET 0.000000 0.000000 0.000000
									}
								}
							}
						}
					}
				}
			}
		}
	}
}
MOTION
Frames: 13
Frame Time: 0.016667
-73.839360 0.000000 468.319598 0.000000 -75.271175 0.000000 -5.745265 87.951607 5.509127 88.028300 10.094646 -177.046488 138.011662 -3.830594 169.973082 -79.800364 1.503615 -4.354105 77.930941 2.635438 -1.574125 21.454555 0.003106 0.000018 171.739438 3.799694 -179.270363 -34.083510 2.928389 -2.680046 76.214849 4.637902 9.781364 21.454553 -0.003101 -0.000000 10.666959 0.479021 2.077146 11.335144 0.752132 4.191240 11.017932 0.777262 4.186627 8.828301 14.534926 12.765161 -16.688169 -24.000205 23.394639 -168.826730 -73.571140 -12.871879 20.506809 52.878411 37.852805 -83.421628 -6.732622 2.526654 -6.329152 -5.153180 32.753683 169.721703 77.652477 -8.947969 -12.270610 -49.259928 -18.079580 -104.871591 1.677447 -3.082004 -3.793236 1.511088 -26.464516 
-72.486987 0.000000 470.886949 0.000000 -73.581254 0.000000 -5.845082 88.944232 5.542418 87.264534 9.576003 -177.518178 137.694050 -3.255737 168.485313 -71.545224 1.266472 -5.353163 78.425787 3.422468 -1.445010 21.454561 0.003103 0.000020 173.902003 3.769624 -179.636036 -32.148907 2.746686 -1.414046 72.904113 3.816996 9.103916 21.454545 -0.003094 -0.000005 10.402598 0.257879 2.012218 10.798221 0.326756 4.039657 10.480964 0.350991 4.037605 8.755800 14.719560 13.113510 -16.326406 -24.305534 23.794480 -168.346226 -73.710228 -13.364535 21.646088 51.825630 38.220255 -83.784608 -6.504997 2.525882 -6.041841 -4.517409 33.105009 170.466364 77.689257 -8.188843 -11.841557 -50.501243 -18.426968 -105.917852 1.599335 -3.122465 -3.593030 1.188716 -27.971683 
-71.183659 0.000000 473.422732 0.000000 -71.894380 0.000000 -5.792016 89.659660 5.531723 86.784334 9.484337 -177.943579 138.114934 -2.843307 166.922174 -62.863988 1.561607 -5.773988 78.574762 3.682815 -1.477261 21.454562 0.003103 0.000020 175.787377 3.564699 -179.834878 -31.381942 2.597780 -0.607186 70.232539 3.926290 10.449552 21.454546 -0.003091 -0.000004 10.191689 0.145601 1.938083 10.372553 0.116859 3.881337 10.055238 0.140146 3.880551 8.567829 14.879425 13.462688 -15.846350 -24.564551 24.155129 -168.015385 -73.797062 -13.703670 22.721299 50.786103 38.490407 -84.218117 -6.235309 2.526199 -5.732194 -3.843242 33.420767 171.146139 77.650626 -7.497922 -11.250282 -51.384171 -18.789866 -107.023415 1.542962 -3.166764 -3.434302 0.758867 -30.227022 
-69.921400 0.000000 475.927378 0.000000 -70.212024 0.000000 -5.621951 90.133457 5.481128 86.537802 9.667886 -178.393667 139.208742 -2.486892 165.454235 -54.094687 1.960230 -5.832885 78.578513 3.749599 -1.335455 21.454560 0.003105 0.000019 177.333610 3.187358 179.933723 -31.749113 2.442376 -0.120589 68.029595 4.509074 12.401825 21.454551 -0.003090 -0.000001 10.027862 0.109804 1.858091 10.043838 0.057939 3.718628 9.726462 0.080243 3.718201 8.344702 15.014429 13.812806 -15.296937 -24.794609 24.486773 -167.738611 -73.836197 -13.987428 23.613817 49.815599 38.621611 -84.724887 -5.933878 2.527744 -5.422994 -3.120140 33.755433 171.768584 77.566474 -6.866532 -10.493819 -51.952317 -19.181321 -108.146552 1.503856 -3.212872 -3.333729 0.346119 -32.893967 
-68.692234 0.000000 478.401321 0.000000 -68.535635 0.000000 -5.370388 90.401192 5.390208 86.487418 9.972281 -178.933660 140.907799 -2.091088 164.251009 -45.586089 2.113187 -5.854998 78.640789 3.954928 -0.679252 21.454558 0.003107 0.000018 178.480944 2.650498 179.474695 -33.219054 2.220376 0.184756 66.111551 4.982497 13.596928 21.454557 -0.003088 0.000001 9.904802 0.118126 1.776014 9.798104 0.085494 3.555586 9.480665 0.106812 3.554997 8.166853 15.123536 14.164449 -14.727589 -25.012577 24.800004 -167.417484 -73.831493 -14.316772 24.212892 48.970782 38.581685 -85.307662 -5.611009 2.530676 -5.135474 -2.337836 34.162973 172.348580 77.466512 -6.278674 -9.570568 -52.248897 -19.612286 -109.245507 1.477701 -3.258677 -3.323208 0.070233 -35.634827 
-67.488187 0.000000 480.844993 0.000000 -66.866628 0.000000 -5.070694 90.474680 5.261261 86.607122 10.259344 -179.611936 143.065402 -1.603047 163.461471 -37.792857 1.865993 -6.172175 78.960925 4.495539 0.519138 21.454557 0.003109 0.000018 179.171296 2.001125 178.649397 -35.789170 1.911575 0.361924 64.342399 4.923009 13.158777 21.454561 -0.003085 0.000000 9.815379 0.140656 1.693156 9.620016 0.140122 3.392076 9.302511 0.160453 3.391161 8.116744 15.208992 14.523561 -14.192846 -25.236140 25.112650 -166.973752 -73.792281 -14.771969 24.456890 48.292053 38.349493 -85.980223 -5.260680 2.535273 -4.884490 -1.494661 34.668246 172.901427 77.382944 -5.717907 -8.477001 -52.328018 -20.092735 -110.272924 1.460456 -3.301778 -3.427253 0.015191 -38.141315 
-66.301282 0.000000 483.258825 0.000000 -65.206382 0.000000 -4.751159 90.270729 5.121232 86.880703 10.459364 179.581768 145.222580 -1.085690 163.136719 -31.612638 1.486081 -6.792130 79.675358 5.044445 1.023415 21.454557 0.003109 0.000018 179.335960 1.402597 177.529990 -39.568005 1.664979 0.098685 62.937201 4.849096 12.024172 21.454562 -0.003082 -0.000002 9.748942 0.157222 1.600037 9.487631 0.182792 3.207508 9.170057 0.202011 3.206339 8.284858 15.288926 14.916542 -13.766829 -25.487391 25.470866 -166.409731 -73.751839 -15.350586 24.464599 47.756193 37.927100 -86.800406 -4.811610 2.540908 -4.666644 -0.622343 35.181463 173.427436 77.358601 -5.182667 -7.196032 -52.288802 -20.636237 -111.158999 1.448740 -3.339000 -3.584478 0.140585 -40.219807 
-65.123543 0.000000 485.643250 0.000000 -63.556227 0.000000 -4.433070 89.704949 4.998075 87.314093 10.529390 178.692243 146.958769 -0.603883 163.247905 -27.927887 1.217416 -7.612306 80.629598 5.439665 0.291089 21.454557 0.003108 0.000019 178.964275 1.007463 176.273379 -44.601975 1.568772 -0.886196 62.166819 5.354733 11.217453 21.454559 -0.003080 -0.000004 9.700291 0.151842 1.483394 9.390131 0.182890 2.974165 9.072487 0.200707 2.972995 8.737623 15.379513 15.369449 -13.522767 -25.774551 25.918509 -165.779992 -73.747809 -15.996465 24.351201 47.330930 37.315744 -87.816064 -4.218615 2.545390 -4.471836 0.240005 35.554155 173.928102 77.426848 -4.670579 -5.718156 -52.235631 -21.239137 -111.823163 1.440018 -3.366770 -3.716612 0.378347 -41.734849 
-63.946995 0.000000 487.998700 0.000000 -61.917435 0.000000 -4.105131 88.783150 4.907636 87.980953 10.468136 177.845904 148.310426 -0.082702 163.590844 -27.003119 1.003361 -8.724832 80.723020 6.555646 1.845942 21.454558 0.003108 0.000019 178.315353 0.848604 175.156527 -50.565652 1.515898 -2.316716 62.238397 6.108718 10.447304 21.454555 -0.003082 -0.000005 9.689499 0.115752 1.325605 9.367581 0.123896 2.656188 9.049852 0.139799 2.655378 9.435969 15.477313 15.885584 -13.507758 -26.046053 26.459928 -165.280386 -73.812075 -16.508431 24.057708 47.011016 36.515608 -88.991961 -3.606147 2.554094 -4.272443 1.055187 35.517932 174.405574 77.572407 -4.180182 -4.094235 -52.253477 -21.807430 -112.164402 1.434072 -3.380944 -3.792153 0.647831 -42.673600 
-62.763663 0.000000 490.325608 0.000000 -60.291219 0.000000 -3.757752 87.570074 4.850677 88.946766 10.238785 177.172916 149.399593 0.600473 163.943097 -28.832930 0.735208 -10.132435 79.617399 9.057105 8.320119 21.454558 0.003111 0.000019 177.655598 0.958294 174.398904 -57.069004 1.385373 -3.756399 63.204067 6.660399 9.388756 21.454552 -0.003088 -0.000003 9.739975 0.032737 1.109623 9.466825 -0.025352 2.218158 9.148990 -0.012092 2.218260 10.298088 15.574614 16.454483 -13.752412 -26.232528 27.080226 -165.145401 -73.964072 -16.645826 23.430834 46.807882 35.457006 -90.249100 -3.112356 2.575566 -4.042328 1.796003 34.853631 174.870773 77.757439 -3.701600 -2.399224 -52.426751 -22.221870 -112.065082 1.436568 -3.377034 -3.782110 0.880940 -43.090251 
-61.565570 0.000000 492.624406 0.000000 -58.678723 0.000000 -3.415158 86.275978 4.771196 90.185567 9.610521 176.736704 150.243670 1.575803 164.157641 -32.942565 0.482621 -11.232771 80.047972 11.239368 14.723028 21.454558 0.003111 0.000018 177.012357 1.424804 173.886863 -63.795086 1.004626 -4.697437 64.534071 7.021824 8.821496 21.454548 -0.003095 -0.000001 9.863201 -0.150855 0.825133 9.710962 -0.370371 1.634675 9.393006 -0.360632 1.636877 11.177003 15.666121 17.033940 -14.249754 -26.257413 27.726209 -165.626581 -74.171711 -16.151308 22.112794 46.771813 33.788405 -91.415060 -2.762275 2.603228 -3.756901 2.468943 33.657812 175.381745 77.902264 -3.177693 -0.765413 -52.846090 -22.329271 -111.361609 1.474434 -3.349469 -3.630772 1.077390 -43.186646 
-60.344741 0.000000 494.895526 0.000000 -57.081020 0.000000 -3.093661 85.089573 4.617934 91.637101 8.431757 176.550525 150.905102 2.899331 164.151988 -38.584751 0.397657 -11.514356 83.766200 11.115673 16.037454 21.454557 0.003103 0.000017 176.327993 2.256550 173.474224 -70.472867 0.322564 -4.695399 65.642285 7.161240 9.350813 21.454541 -0.003099 -0.000001 10.060983 -0.469052 0.475053 10.105655 -0.977737 0.907341 9.787561 -0.972382 0.913228 11.928867 15.753647 17.575620 -14.972580 -26.066041 28.337348 -166.959707 -74.378908 -14.784285 19.746691 46.894601 31.155684 -92.308569 -2.551544 2.628322 -3.393281 3.087387 32.187078 176.019737 77.925857 -2.527475 0.708380 -53.585536 -22.027505 -109.907137 1.583575 -3.293880 -3.259287 1.249527 -43.296990 
-59.093200 0.000000 497.139400 0.000000 -55.499105 0.000000 -2.768177 83.967880 4.426778 93.149297 7.086555 176.543941 151.743798 4.318606 164.031993 -44.297293 0.382163 -11.334055 88.666093 9.957675 14.579795 21.454557 0.003097 0.000017 175.446741 3.108006 173.223706 -76.941383 -0.524661 -3.751377 66.270278 6.620060 9.802667 21.454539 -0.003099 -0.000000 10.305233 -0.841052 0.110426 10.597702 -1.688594 0.143329 10.279466 -1.687840 0.153525 12.488642 15.853328 18.040343 -15.861099 -25.696757 28.874395 -169.227416 -74.498754 -12.460871 16.237503 46.984607 27.529797 -92.806082 -2.469095 2.644955 -2.947423 3.653013 31.022520 176.934384 77.784286 -1.599171 2.128537 -54.629545 -21.460503 -107.667399 1.816836 -3.213899 -2.516738 1.401376 -44.137388 
